<?xml version="1.0" encoding="utf-8"?>
<!-- Generator: Adobe Illustrator 15.1.0, SVG Export Plug-In . SVG Version: 6.00 Build 0)  -->
<!DOCTYPE svg PUBLIC "-//W3C//DTD SVG 1.1//EN" "http://www.w3.org/Graphics/SVG/1.1/DTD/svg11.dtd">
<svg version="1.1" id="Capa_1" xmlns="http://www.w3.org/2000/svg" xmlns:xlink="http://www.w3.org/1999/xlink" x="0px" y="0px"
	 width="490.542px" height="356.098px" viewBox="0 0 490.542 356.098" enable-background="new 0 0 490.542 356.098"
	 xml:space="preserve">
<g>
	<path fill="#FFFFFF" d="M16.909,32.226c-2.427,0-4.668-0.392-6.724-1.173c-2.058-0.782-3.838-1.882-5.347-3.298
		c-1.509-1.416-2.693-3.105-3.551-5.068C0.428,20.724,0,18.562,0,16.201V16.11c0-2.238,0.419-4.344,1.259-6.308
		C2.097,7.842,3.253,6.13,4.725,4.67c1.472-1.461,3.234-2.604,5.288-3.43C12.064,0.413,14.29,0,16.686,0
		c2.751,0,5.126,0.396,7.124,1.191c1.996,0.801,3.823,1.904,5.48,3.32l-5.059,6.064c-1.125-0.944-2.271-1.667-3.439-2.169
		c-1.169-0.501-2.522-0.753-4.061-0.753c-1.125,0-2.168,0.222-3.128,0.661c-0.963,0.442-1.798,1.051-2.508,1.814
		c-0.71,0.768-1.272,1.667-1.687,2.701c-0.415,1.033-0.622,2.14-0.622,3.317v0.089c0,1.237,0.208,2.392,0.624,3.45
		c0.416,1.062,1.001,1.974,1.758,2.727s1.647,1.343,2.671,1.771c1.023,0.432,2.16,0.646,3.406,0.646
		c2.019,0,3.681-0.432,4.987-1.284v-3.763h-6.125V13.5H30.4V27.44c-1.658,1.358-3.611,2.495-5.858,3.409
		C22.293,31.768,19.749,32.226,16.909,32.226z"/>
	<path fill="#FFFFFF" d="M51.568,32.226c-2.397,0-4.616-0.42-6.657-1.262c-2.042-0.841-3.803-1.984-5.281-3.431
		c-1.479-1.446-2.641-3.146-3.484-5.094c-0.843-1.944-1.265-4.024-1.265-6.238V16.11c0-2.213,0.422-4.3,1.265-6.263
		c0.843-1.962,2.019-3.674,3.527-5.135C41.182,3.252,42.958,2.1,45,1.26C47.041,0.42,49.26,0,51.656,0
		c2.397,0,4.615,0.42,6.658,1.262c2.041,0.84,3.801,1.984,5.281,3.431c1.479,1.446,2.64,3.146,3.484,5.094
		c0.843,1.943,1.264,4.024,1.264,6.238v0.091c0,2.215-0.42,4.303-1.264,6.265c-0.844,1.962-2.02,3.674-3.528,5.135
		c-1.508,1.461-3.283,2.611-5.325,3.453S53.964,32.226,51.568,32.226z M51.634,24.479c1.187,0,2.27-0.22,3.25-0.664
		c0.979-0.438,1.809-1.041,2.492-1.793c0.682-0.752,1.216-1.63,1.602-2.634c0.385-1.003,0.579-2.062,0.579-3.187V16.11
		c0-1.117-0.193-2.184-0.579-3.186c-0.385-1.003-0.935-1.89-1.646-2.657C56.62,9.5,55.775,8.888,54.796,8.431
		s-2.062-0.687-3.249-0.687c-1.188,0-2.262,0.221-3.226,0.665c-0.965,0.438-1.796,1.041-2.494,1.793
		c-0.697,0.752-1.23,1.63-1.601,2.634c-0.371,1.003-0.556,2.062-0.556,3.187v0.089c0,1.121,0.193,2.188,0.579,3.188
		c0.385,1.004,0.926,1.89,1.624,2.657c0.698,0.767,1.535,1.379,2.514,1.836C49.364,24.251,50.447,24.479,51.634,24.479z"/>
	<path fill="#FFFFFF" d="M68.094,0.62h9.631l7.056,19.606L91.838,0.62h9.453L88.687,31.828h-7.988L68.094,0.62z"/>
	<path fill="#FFFFFF" d="M104.307,0.62h24.942v7.304h-16.465v4.692h14.91v6.771h-14.91v4.914h16.686v7.304h-25.163V0.62z"/>
	<path fill="#FFFFFF" d="M133.908,0.62h14.69c2.396,0,4.422,0.295,6.079,0.885c1.658,0.591,3.003,1.417,4.039,2.478
		c1.834,1.771,2.752,4.181,2.752,7.22v0.088c0,2.391-0.577,4.367-1.731,5.932c-1.154,1.565-2.707,2.76-4.659,3.585l7.411,10.801
		h-9.941l-6.257-9.385h-0.089h-3.684v9.385h-8.61V0.62L133.908,0.62z M148.199,15.493c1.478,0,2.617-0.332,3.417-0.996
		c0.798-0.664,1.198-1.559,1.198-2.682V11.73c0-1.235-0.416-2.161-1.243-2.767c-0.829-0.604-1.967-0.907-3.417-0.907h-5.636v7.438
		L148.199,15.493L148.199,15.493z"/>
	<path fill="#FFFFFF" d="M166.493,0.62h8.05l12.808,16.378V0.62h8.477v30.982h-7.56l-13.299-16.999v16.999h-8.476V0.62L166.493,0.62
		z"/>
	<path fill="#FFFFFF" d="M16.686,74.033c-2.396,0-4.615-0.423-6.656-1.266c-2.042-0.841-3.803-1.98-5.281-3.43
		c-1.48-1.446-2.641-3.145-3.484-5.091C0.421,62.303,0,60.222,0,58.009V57.92c0-2.213,0.421-4.3,1.265-6.263
		c0.843-1.966,2.018-3.678,3.527-5.139s3.284-2.608,5.326-3.453c2.042-0.841,4.26-1.262,6.656-1.262c2.397,0,4.615,0.42,6.657,1.262
		c2.041,0.844,3.801,1.985,5.281,3.435c1.479,1.442,2.64,3.142,3.484,5.09c0.843,1.948,1.264,4.028,1.264,6.242v0.087
		c0,2.215-0.421,4.302-1.264,6.264c-0.844,1.963-2.02,3.674-3.528,5.135c-1.509,1.46-3.284,2.611-5.326,3.452
		C21.301,73.613,19.083,74.033,16.686,74.033z M16.753,66.286c1.187,0,2.27-0.224,3.249-0.664c0.979-0.442,1.809-1.041,2.492-1.793
		c0.682-0.752,1.216-1.63,1.602-2.637c0.385-1.003,0.579-2.062,0.579-3.187V57.92c0-1.121-0.193-2.188-0.579-3.188
		c-0.386-1.003-0.935-1.888-1.646-2.652c-0.712-0.771-1.558-1.379-2.536-1.838c-0.98-0.457-2.062-0.688-3.25-0.688
		c-1.187,0-2.262,0.222-3.226,0.665c-0.965,0.443-1.795,1.04-2.493,1.792c-0.698,0.753-1.23,1.631-1.601,2.634
		c-0.371,1.003-0.557,2.065-0.557,3.188v0.087c0,1.122,0.193,2.185,0.579,3.187c0.385,1.004,0.926,1.894,1.624,2.657
		c0.697,0.771,1.535,1.379,2.514,1.836C14.483,66.058,15.565,66.286,16.753,66.286z"/>
	<path fill="#FFFFFF" d="M37.442,42.427h15.904c1.949,0,3.618,0.237,5.006,0.708c1.389,0.472,2.54,1.166,3.456,2.081
		c0.62,0.62,1.108,1.343,1.461,2.169c0.354,0.827,0.532,1.771,0.532,2.833v0.088c0,1.8-0.449,3.254-1.346,4.36
		c-0.899,1.104-2.039,1.956-3.421,2.545c1.899,0.621,3.406,1.513,4.518,2.678c1.113,1.167,1.67,2.796,1.67,4.894v0.09
		c0,2.686-1.029,4.778-3.084,6.285c-2.057,1.506-4.949,2.258-8.676,2.258h-16.02V42.427z M51.243,54.777
		c1.331,0,2.345-0.221,3.039-0.664c0.695-0.439,1.043-1.118,1.043-2.032v-0.09c0-0.854-0.325-1.514-0.976-1.973
		c-0.651-0.457-1.627-0.686-2.929-0.686h-5.591v5.44L51.243,54.777L51.243,54.777z M52.485,66.507c1.332,0,2.353-0.243,3.063-0.729
		c0.709-0.484,1.065-1.188,1.065-2.103v-0.089c0-0.855-0.341-1.534-1.021-2.036c-0.68-0.502-1.746-0.753-3.195-0.753H45.83v5.71
		H52.485z"/>
	<path fill="#FFFFFF" d="M69.674,42.427h24.942v7.304H78.15v4.692h14.912v6.771H78.15v4.914h16.687v7.307H69.674V42.427z"/>
	<path fill="#FFFFFF" d="M99.275,42.427h14.689c2.396,0,4.423,0.295,6.08,0.886c1.657,0.59,3.003,1.417,4.039,2.479
		c1.834,1.771,2.751,4.177,2.751,7.216v0.088c0,2.392-0.577,4.368-1.73,5.932c-1.153,1.565-2.708,2.764-4.66,3.589l7.411,10.801
		h-9.939l-6.259-9.385h-0.089h-3.683v9.385h-8.609L99.275,42.427L99.275,42.427z M113.565,57.3c1.479,0,2.618-0.332,3.417-0.996
		c0.799-0.664,1.199-1.556,1.199-2.678v-0.088c0-1.24-0.415-2.161-1.244-2.771c-0.829-0.604-1.968-0.903-3.417-0.903h-5.636V57.3
		H113.565z"/>
	<path fill="#FFFFFF" d="M138.772,49.953h-9.32v-7.526h27.249v7.526h-9.32v23.459h-8.609V49.953L138.772,49.953z"/>
</g>
<g>
	<path d="M218.993,75.637c7.283-6.864,8.088-18.278,1.624-26.104c-6.464-7.828-17.851-9.229-25.999-3.412l-0.029-0.035
		L174.39,62.677l5.304,6.419l20.184-16.583c4.607-2.947,10.799-2.062,14.365,2.254c3.566,4.319,3.25,10.55-0.536,14.493
		l-18.139,14.904l-30.59-10.272c-1.555-0.521-3.237,0.312-3.761,1.86l-8.475,25.103c-0.039,0.12-0.07,0.24-0.096,0.361
		c-3.63,12.585,3.632,26.039,16.631,30.404c13,4.362,26.941-1.97,31.682-14.187c0.053-0.106,0.103-0.225,0.142-0.343l8.475-25.102
		c0.523-1.554-0.312-3.229-1.867-3.75l-2.827-0.95l14.143-11.62L218.993,75.637z"/>
	<path fill="#FFFFFF" d="M177.837,119.24c0,0-1.413,0.455-4.269-0.504c-2.883-0.969-3.603-2.143-3.603-2.143l6.673-14.039
		c-1.363-1.354-1.922-3.417-1.266-5.362c0.794-2.354,3.112-3.77,5.49-3.522c0,0,0.858,0.168,1.134,0.26
		c0.277,0.094,1.062,0.479,1.062,0.479c2.042,1.237,3.028,3.766,2.232,6.116c-0.655,1.944-2.347,3.247-4.257,3.511L177.837,119.24z"
		/>
</g>
<g>
	<g>
		<path d="M267.5,0C260.042,0,254,6.044,254,13.5c0,7.5,6,13.5,13.5,13.5c7.455,0,13.5-6.043,13.5-13.5C281,6,275,0,267.5,0z"/>
	</g>
	<path fill="#FFFFFF" d="M273.658,11.031c0.006,0.101,0,0.197,0,0.377c0,3.828-2.916,8.248-8.248,8.196
		c-1.637,0-3.162-0.479-4.445-1.301c0.229,0,0.5,0,0.701,0.039c1.355,0,2.605-0.465,3.602-1.242
		c-1.27-0.021-2.342-0.857-2.709-2.014c0.178,0,0.398,0.102,0.5,0.053c0.264,0,0.521-0.035,0.764-0.104
		c-1.322-0.27-2.324-1.438-2.324-2.846c0-0.013,0-0.021,0.002-0.033c0.389,0.196,0.799,0.3,1.299,0.396
		c-0.777-0.521-1.289-1.407-1.289-2.413c0-0.53,0.143-1.025,0.393-1.458c1.43,1.8,3.6,2.899,6,3
		c-0.049-0.212-0.076-0.435-0.076-0.66c0-1.601,1.299-2.896,2.898-2.896c0.834,0,1.6,0.396,2.1,0.896
		c0.662-0.13,1.281-0.367,1.842-0.7c-0.217,0.678-0.676,1.242-1.273,1.604c0.586-0.07,1.146-0.227,1.666-0.457
		c-0.336,0.629-0.854,1.129-1.354,1.562H273.658z"/>
</g>
<g>
	<path d="M240.5,0C233.044,0,227,6.045,227,13.5c0,7.5,6,13.5,13.5,13.5c7.455,0,13.5-6.045,13.5-13.5C254,6,248,0,240.5,0z"/>
	<path fill="#FFFFFF" d="M244.612,7.963h-1.602c-1.256,0-1.497,0.598-1.497,1.472v1.935h2.993l-0.39,3.021h-2.604v7.756h-3.123
		V14.39h-2.61v-3.021h2.61v-2.23c0-2.588,1.58-3.996,3.888-3.996c1.106,0,2.101,0.104,2.301,0.119v2.703L244.612,7.963
		L244.612,7.963z"/>
</g>
<g>
	<path d="M294.5,0C287.044,0,281,6.045,281,13.5c0,7.5,6,13.5,13.5,13.5c7.455,0,13.5-6.045,13.5-13.5C308,6,302,0,294.5,0z"/>
	<path fill="#FFFFFF" d="M302.649,9.607h-2.161v2.161h-1.08V9.607h-2.162V8.526h2.162V6.366h1.08v2.157h2.161V9.607z
		 M296.541,18.543c0,1.621-1.479,3.592-5.199,3.592c-2.723,0-4.988-1.174-4.988-3.146c0-1.525,0.964-3.506,5.473-3.506
		c-0.67-0.545-0.835-1.308-0.426-2.134c-2.641,0-3.99-1.553-3.99-3.521c0-1.932,1.436-3.685,4.357-3.685c0.736,0,4.699,0,4.699,0
		l-1.047,1.103h-1.229c0.866,0.5,1.301,1.5,1.301,2.646c0,1.035-0.57,1.874-1.385,2.503c-1.445,1.117-1.074,1.7,0.4,2.803
		c1.541,1.197,1.992,2,1.992,3.344L296.541,18.543L296.541,18.543z M293.619,9.967c-0.219-1.657-1.299-3.018-2.561-3.056
		s-2.107,1.229-1.891,2.891c0.219,1.699,1.397,2.8,2.699,2.854c1.241,0.045,1.932-1.059,1.73-2.688L293.619,9.967L293.619,9.967z
		 M294.921,18.709c0-1.361-1.244-2.662-3.33-2.662c-1.881-0.021-3.477,1.188-3.477,2.59c0,1.4,1.398,2.601,3.198,2.601
		c2.444,0.062,3.585-1.138,3.585-2.524L294.921,18.709L294.921,18.709z"/>
</g>
<g>
	<circle cx="321.501" cy="13.5" r="13.5"/>
	<path fill="#FFFFFF" d="M329.363,8.23l-7.865,5.431L313.65,8.23H329.363z M313.593,9.717l4.625,3.198l-4.625,4.162V9.717z
		 M313.597,18.77l5.684-5.107l2.219,1.521l2.203-1.521l5.66,5.104L313.597,18.77L313.597,18.77z M329.406,17.084l-4.631-4.165
		l4.631-3.194V17.084z"/>
</g>
<g>
	<g>
		<path fill="#808080" d="M267.5,27c-7.457,0-13.5,6.044-13.5,13.5c0,7.5,6,13.5,13.5,13.5c7.455,0,13.5-6.043,13.5-13.5
			C281,33,275,27,267.5,27z"/>
	</g>
	<path fill="#FFFFFF" d="M273.658,38.031c0.006,0.101,0,0.197,0,0.377c0,3.828-2.916,8.248-8.248,8.196
		c-1.637,0-3.162-0.479-4.445-1.301c0.229,0,0.5,0,0.701,0.039c1.355,0,2.605-0.465,3.602-1.242
		c-1.27-0.021-2.342-0.857-2.709-2.014c0.178,0,0.398,0.102,0.5,0.053c0.264,0,0.521-0.035,0.764-0.104
		c-1.322-0.27-2.324-1.438-2.324-2.846c0-0.013,0-0.021,0.002-0.033c0.389,0.196,0.799,0.3,1.299,0.396
		c-0.777-0.521-1.289-1.407-1.289-2.413c0-0.528,0.143-1.025,0.393-1.458c1.43,1.8,3.6,2.899,6,3
		c-0.049-0.212-0.076-0.435-0.076-0.66c0-1.601,1.299-2.896,2.898-2.896c0.834,0,1.6,0.396,2.1,0.896
		c0.662-0.13,1.281-0.367,1.842-0.7c-0.217,0.678-0.676,1.242-1.273,1.604c0.586-0.07,1.146-0.227,1.666-0.457
		c-0.336,0.629-0.854,1.129-1.354,1.562H273.658z"/>
</g>
<g>
	<path fill="#808080" d="M240.5,27c-7.456,0-13.5,6.045-13.5,13.5c0,7.5,6,13.5,13.5,13.5c7.455,0,13.5-6.045,13.5-13.5
		C254,33,248,27,240.5,27z"/>
	<path fill="#FFFFFF" d="M244.612,34.963h-1.602c-1.256,0-1.497,0.598-1.497,1.472v1.935h2.993l-0.39,3.021h-2.604v7.756h-3.123
		V41.39h-2.61v-3.021h2.61V36.14c0-2.588,1.58-3.996,3.888-3.996c1.106,0,2.101,0.104,2.301,0.119v2.703L244.612,34.963
		L244.612,34.963z"/>
</g>
<g>
	<path fill="#808080" d="M294.5,27c-7.455,0-13.5,6.045-13.5,13.5c0,7.5,6,13.5,13.5,13.5c7.455,0,13.5-6.045,13.5-13.5
		C308,33,302,27,294.5,27z"/>
	<path fill="#FFFFFF" d="M302.649,36.607h-2.161v2.161h-1.08v-2.161h-2.162v-1.081h2.162v-2.157h1.08v2.157h2.161V36.607z
		 M296.541,45.543c0,1.621-1.479,3.592-5.199,3.592c-2.723,0-4.988-1.174-4.988-3.146c0-1.525,0.964-3.506,5.473-3.506
		c-0.67-0.545-0.835-1.308-0.426-2.134c-2.641,0-3.99-1.553-3.99-3.521c0-1.932,1.436-3.685,4.357-3.685c0.736,0,4.699,0,4.699,0
		l-1.047,1.103h-1.229c0.866,0.5,1.301,1.5,1.301,2.646c0,1.035-0.57,1.874-1.385,2.503c-1.445,1.117-1.074,1.7,0.4,2.803
		c1.541,1.197,1.992,2,1.992,3.344L296.541,45.543L296.541,45.543z M293.619,36.967c-0.219-1.657-1.299-3.018-2.561-3.056
		s-2.107,1.229-1.891,2.891c0.219,1.699,1.397,2.8,2.699,2.854c1.241,0.045,1.932-1.059,1.73-2.688L293.619,36.967L293.619,36.967z
		 M294.921,45.709c0-1.361-1.244-2.662-3.33-2.662c-1.881-0.021-3.477,1.188-3.477,2.59c0,1.4,1.398,2.601,3.198,2.601
		c2.444,0.062,3.585-1.138,3.585-2.524L294.921,45.709L294.921,45.709z"/>
</g>
<g>
	<circle fill="#808080" cx="321.501" cy="40.5" r="13.5"/>
	<path fill="#FFFFFF" d="M329.363,35.23l-7.865,5.431l-7.848-5.431H329.363L329.363,35.23z M313.593,36.717l4.625,3.198
		l-4.625,4.162V36.717z M313.597,45.77l5.684-5.107l2.219,1.521l2.203-1.521l5.66,5.104L313.597,45.77L313.597,45.77z
		 M329.406,44.084l-4.631-4.165l4.631-3.194V44.084z"/>
</g>
<g>
	<g>
		<path fill="#D8003E" d="M267.5,81c-7.457,0-13.5,6.044-13.5,13.5c0,7.5,6,13.5,13.5,13.5c7.455,0,13.5-6.043,13.5-13.5
			C281,87,275,81,267.5,81z"/>
	</g>
	<path fill="#FFFFFF" d="M273.658,92.031c0.006,0.101,0,0.197,0,0.377c0,3.828-2.916,8.248-8.248,8.196
		c-1.637,0-3.162-0.479-4.445-1.301c0.229,0,0.5,0,0.701,0.039c1.355,0,2.605-0.465,3.602-1.242
		c-1.27-0.021-2.342-0.857-2.709-2.014c0.178,0,0.398,0.102,0.5,0.053c0.264,0,0.521-0.035,0.764-0.104
		c-1.322-0.27-2.324-1.438-2.324-2.846c0-0.013,0-0.021,0.002-0.033c0.389,0.196,0.799,0.3,1.299,0.396
		c-0.777-0.521-1.289-1.407-1.289-2.413c0-0.528,0.143-1.025,0.393-1.458c1.43,1.8,3.6,2.899,6,3
		c-0.049-0.212-0.076-0.435-0.076-0.66c0-1.601,1.299-2.896,2.898-2.896c0.834,0,1.6,0.396,2.1,0.896
		c0.662-0.13,1.281-0.367,1.842-0.7c-0.217,0.678-0.676,1.242-1.273,1.604c0.586-0.07,1.146-0.227,1.666-0.457
		c-0.336,0.629-0.854,1.129-1.354,1.56L273.658,92.031L273.658,92.031z"/>
</g>
<g>
	<path fill="#D8003E" d="M240.5,81c-7.456,0-13.5,6.045-13.5,13.5c0,7.5,6,13.5,13.5,13.5c7.455,0,13.5-6.045,13.5-13.5
		C254,87,248,81,240.5,81z"/>
	<path fill="#FFFFFF" d="M244.612,88.963h-1.602c-1.256,0-1.497,0.598-1.497,1.472v1.935h2.993l-0.39,3.021h-2.604v7.756h-3.123
		V95.39h-2.61v-3.021h2.61V90.14c0-2.588,1.58-3.996,3.888-3.996c1.106,0,2.101,0.104,2.301,0.119v2.703L244.612,88.963
		L244.612,88.963z"/>
</g>
<g>
	<path fill="#D8003E" d="M294.5,81c-7.455,0-13.5,6.045-13.5,13.5c0,7.5,6,13.5,13.5,13.5c7.455,0,13.5-6.045,13.5-13.5
		C308,87,302,81,294.5,81z"/>
	<path fill="#FFFFFF" d="M302.649,90.607h-2.161v2.161h-1.08v-2.161h-2.162v-1.081h2.162v-2.157h1.08v2.157h2.161V90.607z
		 M296.541,99.543c0,1.621-1.479,3.592-5.199,3.592c-2.723,0-4.988-1.174-4.988-3.146c0-1.525,0.964-3.506,5.473-3.506
		c-0.67-0.545-0.835-1.308-0.426-2.134c-2.641,0-3.99-1.553-3.99-3.521c0-1.932,1.436-3.685,4.357-3.685c0.736,0,4.699,0,4.699,0
		l-1.047,1.103h-1.229c0.866,0.5,1.301,1.5,1.301,2.646c0,1.035-0.57,1.874-1.385,2.503c-1.445,1.117-1.074,1.7,0.4,2.803
		c1.541,1.197,1.992,2,1.992,3.344L296.541,99.543L296.541,99.543z M293.619,90.967c-0.219-1.657-1.299-3.018-2.561-3.056
		s-2.107,1.229-1.891,2.891c0.219,1.699,1.397,2.8,2.699,2.854c1.241,0.045,1.932-1.059,1.73-2.688L293.619,90.967L293.619,90.967z
		 M294.921,99.709c0-1.361-1.244-2.662-3.33-2.662c-1.881-0.021-3.477,1.188-3.477,2.59c0,1.4,1.398,2.6,3.198,2.6
		c2.444,0.062,3.585-1.137,3.585-2.523L294.921,99.709L294.921,99.709z"/>
</g>
<g>
	<circle fill="#D8003E" cx="321.501" cy="94.5" r="13.5"/>
	<path fill="#FFFFFF" d="M329.363,89.23l-7.865,5.431l-7.848-5.431H329.363z M313.593,90.717l4.625,3.198l-4.625,4.162V90.717z
		 M313.597,99.77l5.684-5.107l2.219,1.521l2.203-1.521l5.66,5.104L313.597,99.77L313.597,99.77z M329.406,98.084l-4.631-4.165
		l4.631-3.194V98.084z"/>
</g>
<path fill="#FFFFFF" d="M267.5,54c-7.457,0-13.5,6.044-13.5,13.5c0,7.5,6,13.5,13.5,13.5c7.455,0,13.5-6.043,13.5-13.5
	C281,60,275,54,267.5,54z M273.699,65.031h-0.041c0.006,0.101,0,0.197,0,0.377c0,3.828-2.916,8.248-8.248,8.196
	c-1.637,0-3.162-0.479-4.445-1.301c0.229,0,0.5,0,0.701,0.039c1.355,0,2.605-0.465,3.602-1.242c-1.27-0.021-2.342-0.857-2.709-2.014
	c0.178,0,0.398,0.102,0.5,0.053c0.264,0,0.521-0.035,0.764-0.104c-1.322-0.27-2.324-1.438-2.324-2.846c0-0.013,0-0.021,0.002-0.033
	c0.389,0.196,0.799,0.3,1.299,0.396c-0.777-0.521-1.289-1.407-1.289-2.413c0-0.528,0.143-1.025,0.393-1.458c1.43,1.8,3.6,2.899,6,3
	c-0.049-0.212-0.076-0.435-0.076-0.66c0-1.601,1.299-2.896,2.898-2.896c0.834,0,1.6,0.396,2.1,0.896
	c0.662-0.13,1.281-0.367,1.842-0.7c-0.217,0.678-0.676,1.242-1.273,1.604c0.586-0.07,1.146-0.227,1.666-0.457
	C274.716,64.101,274.199,64.601,273.699,65.031z"/>
<path fill="#FFFFFF" d="M240.5,54c-7.456,0-13.5,6.045-13.5,13.5c0,7.5,6,13.5,13.5,13.5c7.455,0,13.5-6.045,13.5-13.5
	C254,60,248,54,240.5,54z M244.507,65.365l-0.39,3.021h-2.604v7.756h-3.123v-7.756h-2.61v-3.021h2.61v-2.229
	c0-2.588,1.58-3.996,3.888-3.996c1.106,0,2.101,0.104,2.301,0.119v2.703h-1.568c-1.256,0-1.497,0.598-1.497,1.472v1.935
	L244.507,65.365L244.507,65.365z"/>
<g>
	<path fill="#FFFFFF" d="M293.6,63.967h0.021c-0.22-1.657-1.3-3.018-2.562-3.056c-1.263-0.038-2.106,1.229-1.892,2.891
		c0.22,1.699,1.398,2.8,2.699,2.854C293.11,66.7,293.8,65.601,293.6,63.967z"/>
	<path fill="#FFFFFF" d="M291.591,70.047c-1.881-0.021-3.477,1.188-3.477,2.59c0,1.4,1.398,2.6,3.198,2.6
		c2.444,0.062,3.585-1.137,3.585-2.523h0.021C294.921,71.348,293.678,70.047,291.591,70.047z"/>
	<path fill="#FFFFFF" d="M294.5,54c-7.455,0-13.5,6.045-13.5,13.5c0,7.5,6,13.5,13.5,13.5c7.455,0,13.5-6.045,13.5-13.5
		C308,60,302,54,294.5,54z M291.341,76.135c-2.723,0-4.989-1.174-4.989-3.146c0-1.525,0.964-3.506,5.472-3.506
		c-0.669-0.545-0.834-1.308-0.425-2.134c-2.64,0-3.991-1.553-3.991-3.521c0-1.932,1.436-3.685,4.358-3.685c0.737,0,4.7,0,4.7,0
		l-1.047,1.103h-1.229c0.866,0.5,1.302,1.5,1.302,2.646c0,1.035-0.57,1.874-1.386,2.503c-1.444,1.117-1.073,1.7,0.399,2.803
		c1.541,1.197,1.992,2,1.992,3.344h0.041C296.541,74.165,295.062,76.135,291.341,76.135z M302.649,63.607h-2.161v2.161h-1.08v-2.161
		h-2.162v-1.081h2.162v-2.157h1.08v2.157h2.161V63.607z"/>
</g>
<path fill="#FFFFFF" d="M321.501,54C314.044,54,308,60.044,308,67.5S314.042,81,321.501,81C328.957,81,335,74.956,335,67.5
	C335,60.043,328.958,54,321.501,54z M329.363,62.23l-7.865,5.431l-7.848-5.431H329.363L329.363,62.23z M313.593,63.717l4.625,3.198
	l-4.625,4.162V63.717z M313.597,72.77l5.684-5.107l2.219,1.521l2.203-1.521l5.66,5.104L313.597,72.77L313.597,72.77z
	 M329.406,71.084l-4.631-4.165l4.631-3.194V71.084z"/>
<path fill="#FFFFFF" d="M432.5,0C422.281,0,414,8.282,414,18.5c0,10.274,8.223,18.5,18.5,18.5c10.217,0,18.5-8.281,18.5-18.5
	C451,8.222,442.777,0,432.5,0z M440.996,15.115h-0.057c0.008,0.137,0,0.271,0,0.515c0,5.25-3.996,11.304-11.305,11.237
	c-2.244,0-4.334-0.659-6.092-1.783c0.311,0,0.684,0,0.961,0.054c1.857,0,3.57-0.637,4.934-1.703
	c-1.736-0.025-3.205-1.18-3.713-2.759c0.242,0,0.551,0.139,0.688,0.072c0.359,0,0.713-0.048,1.045-0.146
	c-1.814-0.361-3.188-1.969-3.188-3.895c0-0.021,0-0.034,0.004-0.051c0.531,0.271,1.096,0.407,1.777,0.548
	c-1.062-0.713-1.766-1.932-1.766-3.311c0-0.728,0.193-1.409,0.539-1.998c1.959,2.47,4.932,3.977,8.221,4.111
	c-0.066-0.291-0.104-0.596-0.104-0.905c0-2.189,1.775-3.973,3.973-3.973c1.143,0,2.188,0.548,2.877,1.234
	c0.906-0.182,1.756-0.513,2.523-0.969c-0.301,0.933-0.93,1.708-1.748,2.199c0.803-0.097,1.566-0.311,2.279-0.626
	C442.39,13.841,441.679,14.526,440.996,15.115z"/>
<path fill="#FFFFFF" d="M395.5,0C385.283,0,377,8.284,377,18.5c0,10.274,8.223,18.5,18.5,18.5c10.217,0,18.5-8.284,18.5-18.5
	C414,8.222,405.777,0,395.5,0z M400.99,15.574l-0.533,4.143h-3.568v10.629h-4.275V19.717h-3.578v-4.143h3.578V12.52
	c0-3.546,2.166-5.476,5.322-5.476c1.521,0,2.883,0.137,3.154,0.163v3.705h-2.145c-1.727,0-2.057,0.815-2.057,2.017v2.646
	L400.99,15.574L400.99,15.574z"/>
<g>
	<path fill="#FFFFFF" d="M468.265,13.658h0.027c-0.299-2.271-1.781-4.139-3.51-4.188c-1.73-0.053-2.893,1.688-2.59,3.961
		c0.299,2.329,1.918,3.837,3.693,3.911C467.595,17.405,468.541,15.897,468.265,13.658z"/>
	<path fill="#FFFFFF" d="M465.513,21.99c-2.578-0.029-4.764,1.627-4.764,3.549c0,1.919,1.918,3.562,4.385,3.562
		c3.354,0.086,4.912-1.558,4.912-3.463h0.029C470.078,23.773,468.373,21.99,465.513,21.99z"/>
	<path fill="#FFFFFF" d="M469.5,0C459.285,0,451,8.284,451,18.5c0,10.274,8.223,18.5,18.5,18.5c10.217,0,18.5-8.284,18.5-18.5
		C488,8.222,479.777,0,469.5,0z M465.169,30.333c-3.729,0-6.836-1.608-6.836-4.312c0-2.09,1.32-4.799,7.498-4.799
		c-0.918-0.747-1.146-1.792-0.582-2.925c-3.617,0-5.469-2.127-5.469-4.827c0-2.642,1.965-5.044,5.973-5.044c1.012,0,6.441,0,6.441,0
		l-1.439,1.505h-1.684c1.186,0.688,1.779,2.057,1.779,3.631c0,1.418-0.779,2.568-1.895,3.434c-1.98,1.527-1.473,2.329,0.549,3.836
		c2.111,1.646,2.73,2.736,2.73,4.582h0.057C472.296,27.632,470.271,30.333,465.169,30.333z M480.667,13.166h-2.963v2.961h-1.48
		v-2.961h-2.963v-1.481h2.963V8.723h1.48v2.961h2.963V13.166z"/>
</g>
<g>
	<path fill="#D8003E" d="M432.5,37c-10.219,0-18.5,8.282-18.5,18.5c0,10.274,8.223,18.5,18.5,18.5c10.217,0,18.5-8.281,18.5-18.5
		C451,45.222,442.777,37,432.5,37z M440.996,52.115h-0.057c0.008,0.137,0,0.271,0,0.515c0,5.25-3.996,11.304-11.305,11.237
		c-2.244,0-4.334-0.659-6.092-1.783c0.311,0,0.684,0,0.961,0.054c1.857,0,3.57-0.637,4.934-1.703
		c-1.736-0.025-3.205-1.18-3.713-2.759c0.242,0,0.551,0.139,0.688,0.072c0.359,0,0.713-0.048,1.045-0.146
		c-1.814-0.361-3.188-1.969-3.188-3.895c0-0.021,0-0.034,0.004-0.051c0.531,0.271,1.096,0.407,1.777,0.548
		c-1.062-0.713-1.766-1.932-1.766-3.311c0-0.728,0.193-1.409,0.539-1.998c1.959,2.47,4.932,3.977,8.221,4.111
		c-0.066-0.291-0.104-0.596-0.104-0.905c0-2.189,1.775-3.973,3.973-3.973c1.143,0,2.188,0.548,2.877,1.234
		c0.906-0.182,1.756-0.513,2.523-0.969c-0.301,0.933-0.93,1.708-1.748,2.199c0.803-0.097,1.566-0.311,2.279-0.626
		C442.39,50.841,441.679,51.526,440.996,52.115z"/>
	<path fill="#D8003E" d="M395.5,37c-10.217,0-18.5,8.284-18.5,18.5c0,10.274,8.223,18.5,18.5,18.5c10.217,0,18.5-8.284,18.5-18.5
		C414,45.222,405.777,37,395.5,37z M400.99,52.574l-0.533,4.143h-3.568v10.629h-4.275V56.717h-3.578v-4.143h3.578V49.52
		c0-3.546,2.166-5.476,5.322-5.476c1.521,0,2.883,0.137,3.154,0.163v3.705h-2.145c-1.727,0-2.057,0.815-2.057,2.017v2.646
		L400.99,52.574L400.99,52.574z"/>
	<g>
		<path fill="#D8003E" d="M468.265,50.658h0.027c-0.299-2.271-1.781-4.139-3.51-4.188c-1.73-0.053-2.893,1.688-2.59,3.961
			c0.299,2.329,1.918,3.837,3.693,3.911C467.595,54.405,468.541,52.897,468.265,50.658z"/>
		<path fill="#D8003E" d="M465.513,58.99c-2.578-0.029-4.764,1.627-4.764,3.549c0,1.919,1.918,3.562,4.385,3.562
			c3.354,0.086,4.912-1.558,4.912-3.463h0.029C470.078,60.773,468.373,58.99,465.513,58.99z"/>
		<path fill="#D8003E" d="M469.5,37c-10.215,0-18.5,8.284-18.5,18.5c0,10.274,8.223,18.5,18.5,18.5c10.217,0,18.5-8.284,18.5-18.5
			C488,45.222,479.777,37,469.5,37z M465.169,67.333c-3.729,0-6.836-1.608-6.836-4.312c0-2.09,1.32-4.799,7.498-4.799
			c-0.918-0.747-1.146-1.792-0.582-2.925c-3.617,0-5.469-2.127-5.469-4.827c0-2.642,1.965-5.044,5.973-5.044
			c1.012,0,6.441,0,6.441,0l-1.439,1.505h-1.684c1.186,0.688,1.779,2.057,1.779,3.631c0,1.418-0.779,2.568-1.895,3.434
			c-1.98,1.527-1.473,2.329,0.549,3.836c2.111,1.646,2.73,2.736,2.73,4.582h0.057C472.296,64.632,470.271,67.333,465.169,67.333z
			 M480.667,50.166h-2.963v2.961h-1.48v-2.961h-2.963v-1.481h2.963v-2.962h1.48v2.961h2.963V50.166z"/>
	</g>
</g>
<g>
	<path fill="#FFFFFF" d="M149.889,188.616c4.984-4.716,5.536-12.552,1.112-17.927c-4.425-5.375-12.218-6.334-17.795-2.343
		l-0.021-0.021l-13.824,11.394l3.63,4.408l13.813-11.385c3.153-2.024,7.392-1.418,9.832,1.547c2.441,2.965,2.225,7.243-0.366,9.951
		l-12.416,10.229l-20.937-7.053c-1.065-0.358-2.216,0.214-2.575,1.273l-5.801,17.235c-0.026,0.082-0.048,0.164-0.065,0.248
		c-2.484,8.64,2.486,17.877,11.382,20.874c8.898,2.998,18.44-1.349,21.685-9.737c0.036-0.074,0.07-0.15,0.097-0.231l5.801-17.234
		c0.357-1.062-0.214-2.218-1.278-2.575l-1.935-0.648l9.68-7.979L149.889,188.616z M121.72,218.552c0,0-0.968,0.315-2.921-0.344
		c-1.973-0.664-2.466-1.475-2.466-1.475l4.568-9.638c-0.934-0.933-1.315-2.347-0.866-3.681c0.542-1.617,2.129-2.589,3.757-2.421
		c0,0,0.587,0.111,0.776,0.177c0.189,0.062,0.727,0.33,0.727,0.33c1.397,0.852,2.072,2.585,1.528,4.202
		c-0.448,1.334-1.607,2.229-2.914,2.406L121.72,218.552z"/>
	<g>
		<g>
			<path fill="#D8003E" d="M11.573,158.125c-1.661,0-3.195-0.271-4.602-0.809c-1.408-0.534-2.627-1.292-3.66-2.266
				c-1.033-0.972-1.844-2.131-2.43-3.479C0.293,150.229,0,148.745,0,147.124v-0.062c0-1.54,0.288-2.979,0.861-4.331
				c0.574-1.346,1.365-2.521,2.372-3.521c1.009-1.002,2.215-1.787,3.62-2.354C8.257,136.283,9.78,136,11.42,136
				c1.883,0,3.509,0.271,4.876,0.818c1.367,0.549,2.616,1.31,3.75,2.279l-3.462,4.163c-0.771-0.646-1.555-1.145-2.354-1.489
				c-0.8-0.344-1.727-0.517-2.779-0.517c-0.77,0-1.484,0.151-2.142,0.456c-0.659,0.304-1.23,0.719-1.716,1.246
				c-0.486,0.523-0.871,1.145-1.154,1.854c-0.285,0.709-0.426,1.474-0.426,2.279v0.062c0,0.854,0.141,1.644,0.427,2.37
				c0.285,0.729,0.685,1.354,1.204,1.868c0.518,0.521,1.127,0.923,1.828,1.217c0.7,0.293,1.478,0.441,2.332,0.441
				c1.382,0,2.519-0.294,3.414-0.881v-2.584h-4.192v-4.315h9.781v9.572c-1.134,0.933-2.471,1.713-4.01,2.342
				C15.259,157.811,13.517,158.125,11.573,158.125z"/>
			<path fill="#D8003E" d="M35.295,158.125c-1.64,0-3.159-0.289-4.556-0.867c-1.398-0.577-2.604-1.362-3.614-2.354
				c-1.013-0.99-1.808-2.155-2.385-3.493c-0.577-1.34-0.865-2.769-0.865-4.285v-0.062c0-1.519,0.289-2.952,0.865-4.3
				c0.578-1.347,1.382-2.521,2.415-3.524c1.033-1.004,2.248-1.795,3.646-2.368c1.398-0.577,2.914-0.865,4.554-0.865
				c1.641,0,3.159,0.289,4.558,0.866c1.396,0.573,2.602,1.359,3.614,2.354c1.012,0.993,1.807,2.157,2.384,3.494
				c0.578,1.337,0.865,2.766,0.865,4.285v0.061c0,1.521-0.288,2.954-0.865,4.304c-0.578,1.349-1.383,2.521-2.415,3.523
				c-1.034,1.002-2.248,1.792-3.646,2.369C38.454,157.836,36.936,158.125,35.295,158.125z M35.34,152.807
				c0.812,0,1.555-0.148,2.226-0.456c0.669-0.304,1.237-0.714,1.705-1.229c0.466-0.521,0.832-1.119,1.095-1.812
				c0.264-0.688,0.396-1.419,0.396-2.188v-0.062c0-0.77-0.132-1.5-0.396-2.188c-0.263-0.688-0.639-1.296-1.126-1.823
				c-0.487-0.527-1.065-0.947-1.736-1.261c-0.669-0.313-1.411-0.475-2.223-0.475c-0.813,0-1.548,0.151-2.209,0.457
				c-0.661,0.307-1.229,0.718-1.707,1.231c-0.478,0.516-0.842,1.12-1.096,1.808c-0.253,0.688-0.38,1.419-0.38,2.188v0.061
				c0,0.771,0.131,1.5,0.396,2.188c0.264,0.688,0.634,1.298,1.112,1.825c0.478,0.523,1.05,0.943,1.72,1.261
				C33.787,152.649,34.528,152.807,35.34,152.807z"/>
			<path fill="#D8003E" d="M46.606,136.425h6.592l4.831,13.464l4.829-13.464h6.47l-8.626,21.427h-5.468L46.606,136.425z"/>
			<path fill="#D8003E" d="M71.393,136.425h17.071v5.015h-11.27v3.225h10.205v4.646H77.194v3.374h11.421v5.018H71.393V136.425z"/>
			<path fill="#D8003E" d="M91.653,136.425h10.054c1.64,0,3.027,0.203,4.161,0.608c1.135,0.401,2.056,0.972,2.765,1.696
				c1.256,1.221,1.883,2.868,1.883,4.955v0.062c0,1.641-0.395,2.998-1.185,4.07c-0.79,1.073-1.853,1.896-3.188,2.464l5.072,7.416
				h-6.804l-4.283-6.443h-0.061h-2.521v6.443h-5.893V136.425L91.653,136.425z M101.434,146.637c1.012,0,1.791-0.228,2.339-0.683
				c0.546-0.457,0.82-1.069,0.82-1.839v-0.062c0-0.85-0.285-1.484-0.851-1.898c-0.568-0.412-1.347-0.62-2.34-0.62h-3.857v5.104
				L101.434,146.637L101.434,146.637z"/>
			<path fill="#D8003E" d="M113.956,136.425h5.51l8.766,11.245v-11.245h5.802V157.7h-5.174l-9.103-11.675V157.7h-5.801V136.425
				L113.956,136.425z"/>
			<path fill="#D8003E" d="M11.42,186.829c-1.64,0-3.159-0.289-4.556-0.867c-1.397-0.577-2.604-1.362-3.615-2.354
				c-1.012-0.988-1.806-2.155-2.384-3.494C0.289,178.774,0,177.346,0,175.826v-0.062c0-1.52,0.289-2.953,0.865-4.3
				c0.578-1.348,1.382-2.521,2.415-3.525c1.032-1.002,2.248-1.793,3.646-2.37c1.397-0.574,2.916-0.863,4.556-0.863
				c1.642,0,3.159,0.289,4.557,0.863c1.397,0.577,2.602,1.362,3.614,2.355c1.012,0.993,1.808,2.158,2.384,3.495
				c0.577,1.336,0.865,2.765,0.865,4.285v0.06c0,1.521-0.288,2.954-0.865,4.301c-0.577,1.352-1.382,2.523-2.415,3.525
				c-1.033,1.002-2.248,1.793-3.646,2.37C14.58,186.54,13.061,186.829,11.42,186.829z M11.466,181.509
				c0.812,0,1.553-0.151,2.224-0.455c0.67-0.303,1.238-0.715,1.706-1.229c0.467-0.521,0.832-1.12,1.095-1.812
				c0.264-0.688,0.396-1.418,0.396-2.188v-0.062c0-0.769-0.132-1.499-0.396-2.188c-0.263-0.688-0.639-1.298-1.126-1.823
				c-0.488-0.526-1.066-0.947-1.735-1.261c-0.67-0.313-1.411-0.476-2.224-0.476c-0.813,0-1.548,0.152-2.208,0.457
				c-0.661,0.305-1.23,0.714-1.708,1.23c-0.477,0.516-0.842,1.118-1.095,1.809c-0.254,0.688-0.381,1.417-0.381,2.188v0.06
				c0,0.771,0.132,1.5,0.396,2.188c0.264,0.688,0.634,1.298,1.112,1.82c0.478,0.526,1.051,0.947,1.721,1.266
				C9.913,181.352,10.653,181.509,11.466,181.509z"/>
			<path fill="#D8003E" d="M25.626,165.129h10.886c1.334,0,2.477,0.163,3.426,0.487c0.951,0.32,1.738,0.8,2.366,1.427
				c0.424,0.426,0.758,0.922,1,1.49c0.243,0.563,0.364,1.216,0.364,1.942v0.062c0,1.232-0.308,2.23-0.922,2.993
				c-0.615,0.759-1.395,1.342-2.341,1.744c1.301,0.429,2.331,1.039,3.092,1.842c0.762,0.8,1.144,1.921,1.144,3.354v0.062
				c0,1.844-0.705,3.279-2.112,4.312c-1.407,1.033-3.386,1.549-5.938,1.549H25.626V165.129z M35.073,173.608
				c0.911,0,1.605-0.148,2.08-0.457c0.477-0.304,0.714-0.77,0.714-1.396v-0.062c0-0.587-0.222-1.035-0.667-1.353
				c-0.446-0.313-1.114-0.47-2.005-0.47h-3.827v3.734L35.073,173.608L35.073,173.608z M35.923,181.662
				c0.911,0,1.61-0.167,2.096-0.501c0.485-0.334,0.729-0.815,0.729-1.443v-0.062c0-0.592-0.233-1.057-0.699-1.397
				c-0.466-0.345-1.194-0.517-2.188-0.517h-4.494v3.919L35.923,181.662L35.923,181.662z"/>
			<path fill="#D8003E" d="M47.688,165.129H64.76v5.014H53.489v3.226h10.206v4.646H53.489v3.374h11.422v5.015H47.688V165.129z"/>
			<path fill="#D8003E" d="M67.949,165.129h10.053c1.64,0,3.028,0.202,4.161,0.604c1.135,0.406,2.056,0.977,2.765,1.701
				c1.255,1.216,1.883,2.868,1.883,4.955v0.062c0,1.641-0.396,2.997-1.185,4.067c-0.788,1.074-1.854,1.896-3.188,2.463l5.072,7.415
				h-6.804l-4.284-6.439h-0.061h-2.52v6.439h-5.893L67.949,165.129L67.949,165.129z M77.729,175.34c1.012,0,1.792-0.229,2.339-0.684
				c0.546-0.455,0.82-1.067,0.82-1.842v-0.062c0-0.854-0.284-1.483-0.852-1.899c-0.567-0.416-1.347-0.622-2.338-0.622h-3.857v5.105
				L77.729,175.34L77.729,175.34z"/>
			<path fill="#D8003E" d="M94.981,170.295h-6.378v-5.167h18.65v5.167h-6.378V186.4h-5.894V170.295L94.981,170.295z"/>
		</g>
	</g>
</g>
<path fill="#D8003E" d="M358.921,4.298c0.008,0.146,0,0.296,0,0.557c0,5.675-4.346,12.22-12.295,12.146
	c-2.439,0-4.715-0.711-6.627-1.931c0.338,0,0.746,0,1.045,0.061c2.021,0,3.883-0.688,5.367-1.838
	c-1.896-0.033-3.488-1.277-4.039-2.982c0.266,0,0.598,0.149,0.744,0.077c0.395,0,0.773-0.052,1.141-0.152
	c-1.975-0.395-3.469-2.129-3.469-4.21c0-0.019,0-0.034,0.004-0.055c0.578,0.296,1.188,0.444,1.934,0.593
	c-1.156-0.771-1.92-2.084-1.92-3.57c0-0.787,0.213-1.524,0.586-2.159c2.133,2.666,5.365,4.294,8.943,4.439
	c-0.074-0.312-0.113-0.644-0.113-0.978c0-2.371,1.938-4.294,4.32-4.294c1.244,0,2.385,0.593,3.131,1.333
	c0.986-0.192,1.91-0.55,2.744-1.043c-0.322,1.004-1.006,1.846-1.9,2.376c0.875-0.104,1.709-0.335,2.482-0.677
	c-0.5,0.931-1.271,1.672-2.016,2.308L358.921,4.298L358.921,4.298z"/>
<rect x="341" y="24" fill="none" width="31" height="33"/>
<path fill="#FFFFFF" d="M365.437,47.213l-3.969-4.146c0.771-1.267,1.217-2.768,1.217-4.376c0-4.517-3.52-8.188-7.844-8.188
	S347,34.176,347,38.691c0,4.519,3.518,8.191,7.842,8.191c1.465,0,2.834-0.421,4.008-1.153l4.01,4.188
	C364.564,51.698,367.15,49,365.437,47.213z M349.431,38.69c0-3.112,2.43-5.648,5.41-5.648c2.984,0,5.41,2.535,5.41,5.648
	c0,3.116-2.43,5.652-5.41,5.652S349.431,41.806,349.431,38.69z"/>
<g>
	<g>
		<path fill="#FFFFFF" d="M8.642,248.354c-1.24,0-2.386-0.199-3.437-0.595c-1.052-0.397-1.962-0.955-2.733-1.674
			s-1.376-1.575-1.815-2.572C0.219,242.518,0,241.42,0,240.223v-0.046c0-1.138,0.214-2.204,0.644-3.2
			c0.429-0.996,1.02-1.865,1.771-2.604c0.753-0.741,1.653-1.321,2.704-1.741c1.048-0.419,2.185-0.63,3.409-0.63
			c1.407,0,2.621,0.203,3.641,0.605c1.021,0.404,1.954,0.966,2.801,1.687l-2.586,3.077c-0.575-0.479-1.161-0.848-1.758-1.103
			c-0.598-0.255-1.289-0.382-2.075-0.382c-0.575,0-1.108,0.112-1.6,0.337c-0.491,0.225-0.918,0.531-1.281,0.921
			c-0.363,0.391-0.65,0.848-0.862,1.37c-0.212,0.524-0.318,1.087-0.318,1.687v0.045c0,0.63,0.106,1.213,0.319,1.753
			c0.212,0.538,0.512,0.999,0.899,1.382c0.387,0.381,0.842,0.682,1.365,0.896c0.523,0.22,1.104,0.325,1.741,0.325
			c1.032,0,1.881-0.216,2.548-0.648v-1.91H8.234v-3.189h7.304v7.076c-0.847,0.689-1.845,1.266-2.994,1.729
			C11.395,248.121,10.094,248.354,8.642,248.354z"/>
		<path fill="#FFFFFF" d="M26.356,248.354c-1.225,0-2.359-0.213-3.402-0.641c-1.043-0.426-1.944-1.006-2.699-1.74
			c-0.757-0.734-1.35-1.595-1.781-2.583c-0.431-0.988-0.646-2.044-0.646-3.167v-0.046c0-1.123,0.215-2.182,0.646-3.179
			c0.431-0.995,1.032-1.864,1.803-2.605c0.771-0.74,1.678-1.326,2.722-1.752c1.043-0.427,2.177-0.641,3.402-0.641
			s2.359,0.214,3.403,0.641c1.043,0.426,1.943,1.008,2.699,1.741s1.349,1.595,1.781,2.583c0.431,0.988,0.646,2.044,0.646,3.168
			v0.044c0,1.124-0.215,2.183-0.646,3.179c-0.432,0.996-1.033,1.864-1.803,2.605c-0.772,0.742-1.679,1.326-2.722,1.752
			C28.715,248.141,27.582,248.354,26.356,248.354z M26.391,244.422c0.606,0,1.16-0.111,1.661-0.336
			c0.5-0.227,0.924-0.528,1.274-0.91c0.347-0.381,0.621-0.827,0.818-1.336c0.197-0.51,0.296-1.049,0.296-1.617v-0.046
			c0-0.569-0.099-1.108-0.296-1.616c-0.197-0.51-0.478-0.959-0.841-1.35c-0.364-0.391-0.796-0.699-1.296-0.934
			c-0.5-0.229-1.054-0.348-1.661-0.348c-0.606,0-1.156,0.112-1.648,0.337c-0.494,0.227-0.918,0.528-1.275,0.91
			c-0.356,0.382-0.629,0.827-0.818,1.336s-0.285,1.049-0.285,1.618v0.044c0,0.569,0.099,1.108,0.296,1.618
			c0.197,0.51,0.474,0.959,0.831,1.348c0.356,0.392,0.784,0.699,1.285,0.934C25.231,244.307,25.784,244.422,26.391,244.422z"/>
		<path fill="#FFFFFF" d="M34.803,232.315h4.922l3.607,9.951l3.606-9.951h4.832l-6.442,15.838h-4.083L34.803,232.315z"/>
		<path fill="#FFFFFF" d="M53.312,232.315H66.06v3.707h-8.416v2.381h7.621v3.438h-7.621v2.493h8.529v3.706H53.312V232.315z"/>
		<path fill="#FFFFFF" d="M68.441,232.315h7.508c1.226,0,2.261,0.15,3.107,0.449c0.848,0.301,1.535,0.719,2.064,1.258
			c0.938,0.898,1.406,2.119,1.406,3.662v0.045c0,1.213-0.295,2.217-0.885,3.01c-0.59,0.796-1.383,1.4-2.381,1.82l3.788,5.48h-5.081
			l-3.198-4.764h-0.046H72.84v4.764h-4.4L68.441,232.315L68.441,232.315z M75.746,239.865c0.756,0,1.338-0.172,1.746-0.508
			c0.408-0.338,0.613-0.789,0.613-1.357v-0.045c0-0.629-0.213-1.099-0.636-1.404c-0.425-0.307-1.006-0.461-1.747-0.461h-2.881v3.775
			H75.746z"/>
		<path fill="#FFFFFF" d="M85.097,232.315h4.114l6.547,8.312v-8.312h4.332v15.727h-3.864l-6.797-8.626v8.626h-4.332V232.315z"/>
		<path fill="#FFFFFF" d="M8.528,269.569c-1.225,0-2.359-0.213-3.402-0.639c-1.044-0.428-1.944-1.008-2.699-1.742
			c-0.756-0.73-1.35-1.594-1.781-2.582C0.215,263.618,0,262.561,0,261.438v-0.045c0-1.123,0.215-2.182,0.646-3.179
			c0.431-0.995,1.032-1.864,1.803-2.604s1.678-1.324,2.722-1.754c1.044-0.426,2.178-0.64,3.402-0.64c1.225,0,2.359,0.214,3.403,0.64
			c1.043,0.43,1.942,1.008,2.699,1.742c0.756,0.733,1.35,1.594,1.781,2.582s0.646,2.045,0.646,3.168v0.045
			c0,1.123-0.215,2.186-0.646,3.182c-0.432,0.993-1.032,1.861-1.804,2.604c-0.771,0.742-1.679,1.326-2.722,1.754
			C10.887,269.356,9.754,269.569,8.528,269.569z M8.562,265.639c0.607,0,1.16-0.112,1.661-0.338c0.5-0.225,0.925-0.527,1.274-0.909
			c0.348-0.382,0.622-0.827,0.818-1.337c0.197-0.509,0.296-1.047,0.296-1.617v-0.045c0-0.566-0.099-1.106-0.296-1.617
			c-0.196-0.509-0.477-0.958-0.841-1.348c-0.364-0.39-0.796-0.7-1.296-0.933c-0.5-0.231-1.054-0.351-1.661-0.351
			c-0.606,0-1.156,0.113-1.649,0.338c-0.493,0.227-0.917,0.527-1.274,0.909c-0.356,0.382-0.629,0.828-0.818,1.337
			c-0.189,0.511-0.285,1.049-0.285,1.617v0.045c0,0.569,0.099,1.108,0.296,1.617c0.197,0.51,0.474,0.959,0.83,1.348
			c0.356,0.393,0.785,0.701,1.286,0.935C7.403,265.523,7.956,265.639,8.562,265.639z"/>
		<path fill="#FFFFFF" d="M19.137,253.531h8.129c0.996,0,1.849,0.117,2.558,0.356c0.71,0.239,1.298,0.593,1.767,1.056
			c0.317,0.314,0.566,0.684,0.748,1.104c0.181,0.419,0.271,0.896,0.271,1.438v0.045c0,0.914-0.229,1.65-0.688,2.215
			c-0.459,0.561-1.042,0.99-1.749,1.291c0.971,0.312,1.741,0.768,2.31,1.357s0.854,1.418,0.854,2.482v0.045
			c0,1.362-0.526,2.426-1.576,3.188c-1.052,0.766-2.53,1.146-4.435,1.146h-8.188L19.137,253.531L19.137,253.531z M26.191,259.798
			c0.68,0,1.198-0.112,1.553-0.337c0.355-0.227,0.533-0.569,0.533-1.033v-0.045c0-0.435-0.166-0.768-0.499-1
			s-0.832-0.348-1.498-0.348h-2.857v2.763H26.191z M26.826,265.75c0.681,0,1.202-0.123,1.565-0.369
			c0.362-0.248,0.544-0.604,0.544-1.068v-0.045c0-0.434-0.173-0.776-0.521-1.033c-0.348-0.254-0.892-0.381-1.633-0.381h-3.356v2.896
			H26.826z"/>
		<path fill="#FFFFFF" d="M35.611,253.531h12.748v3.703h-8.415v2.384h7.621v3.437h-7.621v2.494h8.529v3.705H35.611V253.531z"/>
		<path fill="#FFFFFF" d="M50.741,253.531h7.508c1.224,0,2.26,0.146,3.107,0.447c0.848,0.299,1.535,0.721,2.064,1.257
			c0.938,0.899,1.406,2.12,1.406,3.662v0.045c0,1.215-0.295,2.218-0.885,3.013c-0.589,0.793-1.384,1.397-2.381,1.816l3.787,5.48
			h-5.08l-3.199-4.762h-0.046H55.14v4.762h-4.4L50.741,253.531L50.741,253.531z M58.044,261.078c0.755,0,1.338-0.168,1.747-0.505
			c0.409-0.339,0.612-0.79,0.612-1.359v-0.046c0-0.629-0.212-1.098-0.636-1.403c-0.423-0.307-1.005-0.46-1.746-0.46h-2.88v3.773
			H58.044z"/>
		<path fill="#FFFFFF" d="M70.928,257.35h-4.764v-3.816h13.928v3.816h-4.764v11.904h-4.4V257.35z"/>
	</g>
	<g>
		<path d="M111.93,270.891c3.723-3.48,4.135-9.273,0.83-13.248c-3.305-3.973-9.124-4.683-13.289-1.729l-0.015-0.021l-10.323,8.422
			l2.711,3.26l10.316-8.416c2.354-1.496,5.52-1.049,7.341,1.144c1.823,2.192,1.661,5.354-0.273,7.354l-9.271,7.562l-15.637-5.211
			c-0.794-0.266-1.653,0.156-1.922,0.943l-4.331,12.736c-0.021,0.062-0.036,0.121-0.049,0.186c-1.856,6.387,1.856,13.213,8.5,15.43
			c6.645,2.215,13.771-0.998,16.192-7.197c0.027-0.057,0.053-0.113,0.072-0.174l4.332-12.74c0.268-0.784-0.16-1.639-0.954-1.9
			l-1.445-0.482l7.229-5.896L111.93,270.891z"/>
		<path fill="#FFFFFF" d="M90.895,293.018c0,0-0.723,0.232-2.182-0.256c-1.474-0.49-1.842-1.086-1.842-1.086l3.41-7.123
			c-0.695-0.688-0.981-1.734-0.646-2.723c0.406-1.193,1.591-1.912,2.807-1.789c0,0,0.439,0.086,0.58,0.133s0.543,0.242,0.543,0.242
			c1.043,0.629,1.547,1.912,1.141,3.104c-0.335,0.986-1.199,1.648-2.176,1.779L90.895,293.018z"/>
	</g>
</g>
<g>
	<g>
		<path fill="#FFFFFF" d="M178.972,252.684c-1.574,0-3.029-0.252-4.363-0.752c-1.335-0.503-2.491-1.208-3.47-2.116
			c-0.979-0.909-1.748-1.991-2.304-3.253c-0.557-1.26-0.835-2.646-0.835-4.161v-0.059c0-1.438,0.272-2.787,0.817-4.047
			c0.544-1.26,1.294-2.359,2.249-3.297c0.956-0.938,2.099-1.67,3.433-2.201c1.331-0.529,2.774-0.796,4.329-0.796
			c1.786,0,3.327,0.257,4.622,0.769c1.296,0.512,2.481,1.222,3.557,2.131l-3.283,3.893c-0.729-0.605-1.474-1.069-2.231-1.394
			c-0.759-0.32-1.637-0.48-2.635-0.48c-0.729,0-1.407,0.142-2.031,0.426c-0.624,0.283-1.166,0.672-1.627,1.164
			c-0.46,0.491-0.826,1.07-1.094,1.731c-0.269,0.663-0.404,1.375-0.404,2.132v0.058c0,0.796,0.135,1.533,0.405,2.216
			s0.65,1.266,1.141,1.748c0.491,0.481,1.069,0.862,1.733,1.136c0.664,0.275,1.402,0.41,2.21,0.41c1.31,0,2.388-0.271,3.235-0.82
			v-2.415h-3.973v-4.034h9.272v8.948c-1.076,0.872-2.343,1.602-3.801,2.188S180.814,252.684,178.972,252.684z"/>
		<path fill="#FFFFFF" d="M201.461,252.684c-1.555,0-2.995-0.27-4.319-0.81c-1.325-0.538-2.468-1.271-3.427-2.201
			c-0.96-0.929-1.713-2.019-2.261-3.269c-0.548-1.25-0.821-2.585-0.821-4.005v-0.059c0-1.42,0.273-2.759,0.821-4.021
			c0.547-1.259,1.311-2.356,2.29-3.296c0.979-0.936,2.13-1.677,3.456-2.215c1.325-0.54,2.764-0.811,4.319-0.811
			s2.995,0.271,4.32,0.811c1.324,0.538,2.467,1.274,3.427,2.201c0.96,0.928,1.713,2.018,2.261,3.267
			c0.547,1.25,0.82,2.586,0.82,4.009v0.056c0,1.422-0.273,2.761-0.82,4.02c-0.548,1.263-1.311,2.358-2.289,3.298
			c-0.98,0.938-2.131,1.678-3.456,2.216C204.456,252.414,203.017,252.684,201.461,252.684z M201.504,247.712
			c0.77,0,1.473-0.143,2.109-0.425c0.634-0.284,1.174-0.669,1.618-1.151c0.44-0.481,0.789-1.046,1.038-1.689
			c0.25-0.646,0.376-1.324,0.376-2.045v-0.059c0-0.72-0.126-1.401-0.376-2.044c-0.25-0.646-0.606-1.213-1.068-1.707
			c-0.462-0.491-1.011-0.885-1.646-1.178c-0.635-0.293-1.338-0.44-2.108-0.44s-1.468,0.145-2.093,0.427
			c-0.626,0.284-1.166,0.668-1.619,1.15c-0.452,0.483-0.798,1.047-1.039,1.688c-0.241,0.646-0.362,1.327-0.362,2.049v0.056
			c0,0.72,0.126,1.402,0.376,2.047c0.25,0.646,0.601,1.212,1.054,1.704c0.453,0.492,0.996,0.885,1.631,1.179
			C200.03,247.567,200.734,247.712,201.504,247.712z"/>
		<path fill="#FFFFFF" d="M212.185,232.4h6.249l4.579,12.586l4.579-12.586h6.134l-8.179,20.03h-5.184L212.185,232.4z"/>
		<path fill="#FFFFFF" d="M235.683,232.4h16.186v4.688h-10.685v3.011h9.675v4.348h-9.675v3.152h10.828v4.688h-16.328L235.683,232.4
			L235.683,232.4z"/>
		<path fill="#FFFFFF" d="M254.89,232.4h9.531c1.557,0,2.871,0.19,3.945,0.568c1.075,0.381,1.948,0.909,2.62,1.591
			c1.19,1.136,1.786,2.68,1.786,4.632v0.058c0,1.533-0.375,2.804-1.124,3.807c-0.749,1.004-1.755,1.771-3.021,2.302l4.809,6.934
			h-6.451l-4.061-6.021h-0.059h-2.391v6.021h-5.587L254.89,232.4L254.89,232.4z M264.164,241.947c0.959,0,1.699-0.214,2.217-0.64
			c0.52-0.427,0.779-0.998,0.779-1.719v-0.06c0-0.795-0.271-1.386-0.808-1.773c-0.539-0.388-1.276-0.583-2.218-0.583h-3.657v4.772
			L264.164,241.947L264.164,241.947z"/>
		<path fill="#FFFFFF" d="M276.035,232.4h5.223l8.312,10.515V232.4h5.5v19.889h-4.906l-8.629-10.909v10.909h-5.5V232.4z"/>
		<path fill="#FFFFFF" d="M178.827,279.514c-1.555,0-2.995-0.269-4.319-0.807c-1.325-0.541-2.468-1.274-3.427-2.204
			c-0.96-0.926-1.713-2.018-2.261-3.268c-0.548-1.25-0.82-2.585-0.82-4.005v-0.058c0-1.42,0.273-2.759,0.821-4.021
			c0.547-1.259,1.31-2.356,2.289-3.294s2.131-1.677,3.456-2.218c1.325-0.539,2.765-0.81,4.319-0.81c1.556,0,2.996,0.271,4.32,0.81
			c1.325,0.541,2.466,1.274,3.426,2.203c0.96,0.928,1.713,2.016,2.261,3.265c0.547,1.25,0.82,2.587,0.82,4.01v0.056
			c0,1.421-0.273,2.762-0.82,4.021c-0.548,1.261-1.311,2.356-2.29,3.293c-0.979,0.939-2.131,1.68-3.456,2.221
			C181.822,279.245,180.383,279.514,178.827,279.514z M178.871,274.544c0.771,0,1.473-0.144,2.108-0.427
			c0.635-0.284,1.174-0.667,1.617-1.15c0.442-0.482,0.789-1.046,1.039-1.69c0.25-0.643,0.375-1.322,0.375-2.045v-0.058
			c0-0.719-0.125-1.401-0.375-2.045c-0.25-0.645-0.606-1.211-1.068-1.704s-1.011-0.885-1.646-1.18
			c-0.636-0.292-1.338-0.44-2.108-0.44s-1.468,0.143-2.093,0.427s-1.165,0.667-1.618,1.149c-0.453,0.481-0.799,1.048-1.039,1.689
			c-0.24,0.646-0.361,1.326-0.361,2.047v0.057c0,0.721,0.126,1.401,0.376,2.046s0.602,1.212,1.054,1.704
			c0.453,0.495,0.996,0.887,1.632,1.18C177.399,274.398,178.1,274.544,178.871,274.544z"/>
		<path fill="#FFFFFF" d="M192.295,259.233h10.321c1.265,0,2.348,0.15,3.248,0.453c0.901,0.304,1.648,0.75,2.243,1.335
			c0.403,0.397,0.719,0.862,0.949,1.396c0.229,0.527,0.344,1.137,0.344,1.815v0.06c0,1.153-0.291,2.086-0.873,2.799
			c-0.583,0.708-1.323,1.255-2.221,1.632c1.233,0.398,2.211,0.971,2.932,1.719c0.722,0.749,1.084,1.794,1.084,3.143v0.057
			c0,1.723-0.668,3.068-2.001,4.033c-1.335,0.966-3.212,1.447-5.631,1.447h-10.395V259.233z M201.251,267.158
			c0.864,0,1.521-0.144,1.972-0.428c0.451-0.284,0.677-0.72,0.677-1.307v-0.058c0-0.551-0.211-0.972-0.633-1.267
			c-0.423-0.294-1.057-0.438-1.901-0.438h-3.627v3.492h3.512V267.158z M202.057,274.686c0.864,0,1.526-0.156,1.987-0.468
			c0.46-0.312,0.69-0.763,0.69-1.351v-0.059c0-0.549-0.22-0.982-0.662-1.307c-0.442-0.321-1.132-0.481-2.073-0.481h-4.261v3.663
			L202.057,274.686L202.057,274.686z"/>
		<path fill="#FFFFFF" d="M213.21,259.233h16.184v4.688h-10.683v3.012h9.675v4.347h-9.675v3.155h10.827v4.687H213.21V259.233z"/>
		<path fill="#FFFFFF" d="M232.418,259.233h9.532c1.554,0,2.87,0.188,3.944,0.567c1.076,0.379,1.949,0.91,2.621,1.59
			c1.189,1.138,1.785,2.682,1.785,4.632v0.059c0,1.531-0.375,2.802-1.123,3.808c-0.748,1.004-1.758,1.771-3.022,2.299l4.808,6.934
			h-6.447l-4.061-6.021h-0.058h-2.389v6.021h-5.587L232.418,259.233L232.418,259.233z M241.69,268.777
			c0.959,0,1.699-0.212,2.218-0.639c0.518-0.426,0.777-0.999,0.777-1.719v-0.061c0-0.794-0.269-1.385-0.807-1.772
			c-0.537-0.39-1.276-0.581-2.217-0.581h-3.657v4.771L241.69,268.777L241.69,268.777z"/>
		<path fill="#FFFFFF" d="M258.046,264.061H252v-4.828h17.683v4.828h-6.05v15.058h-5.586V264.061L258.046,264.061z"/>
	</g>
	<g>
		<path d="M310.101,281.187c4.727-4.402,5.25-11.729,1.055-16.755c-4.195-5.021-11.582-5.922-16.871-2.188l-0.02-0.023
			l-13.105,10.651l3.441,4.118l13.098-10.645c2.987-1.892,7.006-1.323,9.318,1.447c2.314,2.771,2.109,6.771-0.346,9.301
			l-11.771,9.562l-19.854-6.591c-1.008-0.335-2.098,0.198-2.438,1.193l-5.499,16.11c-0.025,0.074-0.046,0.15-0.062,0.229
			c-2.355,8.077,2.356,16.71,10.791,19.515c8.438,2.803,17.482-1.263,20.559-9.103c0.035-0.072,0.066-0.146,0.092-0.22l5.5-16.113
			c0.342-0.993-0.203-2.071-1.211-2.405l-1.835-0.608l9.179-7.457L310.101,281.187z"/>
		<path fill="#FFFFFF" d="M283.396,309.17c0,0-0.917,0.294-2.77-0.323c-1.871-0.62-2.338-1.374-2.338-1.374l4.328-9.008
			c-0.884-0.872-1.246-2.193-0.82-3.443c0.516-1.51,2.02-2.418,3.562-2.263c0,0,0.56,0.109,0.735,0.169
			c0.18,0.058,0.689,0.305,0.689,0.305c1.323,0.796,1.963,2.419,1.447,3.931c-0.425,1.247-1.521,2.085-2.764,2.25L283.396,309.17z"
			/>
	</g>
</g>
<path fill="#CCCCCC" d="M368.171,85.235l-5.85-6.012c1.133-1.837,1.793-4.014,1.793-6.345c0-6.55-5.189-11.877-11.561-11.877
	C346.183,61,341,66.327,341,72.878c0,6.547,5.184,11.878,11.557,11.878c2.158,0,4.178-0.611,5.906-1.672l5.902,6.067
	C366.884,91.738,370.695,87.827,368.171,85.235z M344.582,72.877c0-4.52,3.578-8.196,7.973-8.196c4.398,0,7.979,3.675,7.979,8.196
	c0,4.519-3.582,8.193-7.979,8.193C348.164,81.072,344.582,77.396,344.582,72.877z"/>
<g>
	<rect x="122" y="232" fill="#CCCCCC" width="40" height="40"/>
	<rect x="127" y="239.885" fill="#FFFFFF" width="30" height="4"/>
	<rect x="127" y="260.115" fill="#FFFFFF" width="30" height="4"/>
	<rect x="127" y="249.999" fill="#FFFFFF" width="30" height="4"/>
</g>
</svg>
